<svg width="58" height="22" viewBox="0 0 58 22" fill="none" xmlns="http://www.w3.org/2000/svg">
<path d="M11.1521 9.94702C13.4864 10.5725 15.4348 11.6591 16.7019 12.8851C17.983 14.1246 18.4868 15.415 18.1978 16.4937C17.9088 17.5723 16.8273 18.4379 15.0981 18.8708C13.3876 19.299 11.1571 19.2658 8.82274 18.6404C6.48842 18.0149 4.54009 16.9283 3.27292 15.7023C1.99183 14.4628 1.48804 13.1724 1.77706 12.0937C2.06608 11.0151 3.1476 10.1494 4.8768 9.71654C6.58721 9.28836 8.81779 9.32154 11.1521 9.94702Z" fill="#F9F5EE" stroke="#D7CFC6"/>
<path d="M48.0139 7.92545C50.4278 7.81106 52.6144 8.25332 54.1945 9.03568C55.7919 9.82664 56.6645 10.9026 56.7173 12.0181C56.7702 13.1335 56.0033 14.2872 54.4878 15.2256C52.9888 16.1539 50.8538 16.801 48.4399 16.9154C46.0259 17.0298 43.8394 16.5875 42.2593 15.8051C40.6618 15.0142 39.7893 13.9382 39.7364 12.8228C39.6835 11.7073 40.4504 10.5537 41.9659 9.61517C43.465 8.68689 45.5999 8.03984 48.0139 7.92545Z" fill="#F9F5EE" stroke="#D7CFC6"/>
<path d="M39.9797 2.81269C42.314 2.18721 44.5446 2.15403 46.255 2.58221C47.9842 3.0151 49.0657 3.88077 49.3547 4.9594C49.6437 6.03802 49.1399 7.32847 47.8589 8.56797C46.5917 9.79399 44.6434 10.8805 42.309 11.506C39.9747 12.1315 37.7441 12.1647 36.0337 11.7365C34.3045 11.3036 33.223 10.4379 32.934 9.35932C32.645 8.2807 33.1488 6.99024 34.4298 5.75075C35.697 4.52473 37.6453 3.43817 39.9797 2.81269Z" fill="#F9F5EE" stroke="#D7CFC6"/>
</svg>
